<?xml version="1.0" encoding="utf-8"?>
<!-- Generator: Adobe Illustrator 23.0.5, SVG Export Plug-In . SVG Version: 6.00 Build 0)  -->
<svg version="1.1" id="Capa_1" xmlns="http://www.w3.org/2000/svg" xmlns:xlink="http://www.w3.org/1999/xlink" x="0px" y="0px"
	 viewBox="0 0 464.4 205" style="enable-background:new 0 0 464.4 205;" xml:space="preserve">
<style type="text/css">
	.st0{fill:#0037FF;}
	.st1{enable-background:new    ;}
	.st2{fill:#2E00FF;}
</style>
<title>logo-bra</title>
<path class="st0" d="M94.8,1.5c-0.7,0.9-1.6,5-2,9.3C91.7,23.8,89.1,26,75.3,26c-7.2,0-8.8,0.3-10.5,2c-1.1,1-1.8,2.3-2.1,3.7
	c-0.1,1-0.2,3.1-0.3,4.8S62.1,41,62,42.7c-0.3,2.4-1.4,4.7-3.1,6.5c-2.8,3.2-3.3,3.3-12,3.8c-12.1,0.8-13.1,1.7-13.1,11.9
	c0,9.7-1.4,14.8-5.2,18.3c-2.9,2.7-3.5,2.8-12.5,2.8C5.7,86,1.2,87.5,0.3,91.3C0,92.5-0.1,99.1,0,105.9c0.4,15.8,0.6,16.1,15.4,16.4
	s18.4,3.6,18.4,17.5c0,9.6,0.8,10.5,11.3,11.3c13.6,1.1,16.4,3.7,17.4,16.4C63.3,177.8,64.7,179,76,179c13.3,0,15.7,2.1,16.8,15.2
	c0.4,4.3,1.3,8.4,2,9.3c1,1.2,3.7,1.5,13.6,1.5h12.3l2-2.9c2.6-3.6,3-15.5,0.6-20c-1.9-3.7-3.2-4.2-14.3-5
	c-12.3-1-14.1-2.6-15.2-13.2c-1.3-12-2.1-12.9-12.4-12.9c-7.7,0-13.3-2-16.1-5.8c-1.6-2.2-2-4.3-2-10.9c0-11.1,1.2-12.5,12.7-13.3
	c4.6-0.3,9.3-1.2,10.6-2c3.6-2.4,5.2-7.1,5.2-15.3c0-12.3-4.4-16.5-17.6-16.6C64.6,87,63.4,85.5,63,73.8C62.5,58.7,66.5,54,80,54
	c7.2,0,11.3-1.3,12.4-3.9c0.7-3,1.1-6,1.4-9.1c0.7-6.5,1.2-7.7,3.7-10s4.1-2.8,12.4-3.3c8.9-0.6,9.6-0.8,12.2-3.7s2.7-3.7,2.7-10.9
	c0-6.4-0.4-8.3-2.1-10.5c-2-2.6-2.2-2.6-14.4-2.6C98.5,0,95.8,0.3,94.8,1.5z"/>
<path class="st0" d="M129.6,30.3c-2.5,2.3-3.5,6.6-3.7,14.6c0,3.3-3.2,7.4-6.2,8.2c-1.3,0.4-6.1,0.7-10.5,0.8
	c-12.5,0.2-12.9,0.6-12.5,16.7c0.2,9.8,0.6,13.3,1.7,14.4s4.6,1.7,11.8,2.1c15.4,0.8,18.5,3.8,19.4,18.1c0.6,10.6,2.1,12,13.8,12.8
	c8.1,0.5,8.7,0.7,11.5,3.8s2.9,3.8,2.9,11.3c0,9.3-0.8,11.3-5.1,12.8c-3.4,1.2-15.8,1.3-19.9,0.2c-3.6-1-6-6.4-6-13.8
	c0-5.6-0.3-6.3-3.1-8.7s-3.8-2.6-12.5-2.6s-9.7,0.2-11.9,2.5s-2.5,3.1-2.5,12.3c0,14,0.5,14.5,14,15.2c10,0.5,10.3,0.6,13.1,3.8
	c2.5,2.8,2.9,4,2.9,9.1c0,4.3,0.5,6.5,2,8.3c4.8,6.2,25.9,6.5,30.9,0.4c0.7-0.9,1.7-5,2.1-9.2c0.6-6.2,1.2-8.1,3.3-10.1
	c2.3-2.3,3.2-2.5,11.6-2.5c7.7,0,9.7-0.4,12.4-2.2l3.2-2.2l0.3-11.4c0.2-8-0.1-12.2-1-13.9c-2-3.7-6.7-5.1-16.6-5.1
	c-8.1,0-9.2-0.2-11.6-2.5c-3.4-3.2-4.6-6.4-4.6-12.9c0-11.4-3.3-14.6-15.1-14.6c-6.7,0-7.3-0.2-10.5-3.4s-3.4-3.7-3.4-11
	c0-8.6,1.6-13,5.2-14c3.3-0.5,6.7-0.7,10.1-0.6c11.4,0,14.6,2.2,14.7,10c0,6.4,1.8,12.2,4.3,14.2c1.8,1.4,4.3,1.8,12.8,1.8
	c13.5,0,14.1-0.5,14.7-12.4c0.5-10-0.9-15.3-4.5-16.7c-1.3-0.5-5.6-0.9-9.4-0.9c-12.4,0-16.9-3.8-16.9-14.1c0-4.4-0.5-5.8-2.7-8.1
	c-2.6-2.8-2.9-2.8-14.3-2.8C132.9,28,131.9,28.2,129.6,30.3z"/>
<path class="st0" d="M198.4,93.1c-4.6,5.5-3.2,19.9,2.3,22.9c1.1,0.5,5.2,1,9.2,1c6.5,0,7.6-0.3,10.1-2.7s2.8-3.2,2.8-10.8
	s-0.2-8.3-2.8-10.8s-3.5-2.7-10.9-2.7C201.3,90,200.9,90.1,198.4,93.1z"/>
<g class="st1">
	<path class="st2" d="M262,121h-12.5V87.5h12c7.1,0,10.6,3.8,10.6,8.5c0,4.2-2.6,6.7-5.9,7.7c3.6,0.6,6.6,4.1,6.6,8.3
		C272.9,117.1,268.9,121,262,121z M261.2,91.1h-7.2V102h7.3c4.1,0,6.4-2,6.4-5.4C267.7,93.3,265.4,91.1,261.2,91.1z M261.5,105.6
		h-7.6v11.8h7.7c4.3,0,6.9-2.2,6.9-5.8C268.5,107.9,265.8,105.6,261.5,105.6z"/>
	<path class="st2" d="M283.3,121H279V94.7h4.4V99c1.5-2.9,4.3-4.8,8.5-4.8v4.5h-1.2c-4.2,0-7.3,1.9-7.3,8V121z"/>
	<path class="st2" d="M307.7,94.3c4.9,0,8.3,2.5,9.8,5.2v-4.8h4.4V121h-4.4v-4.9c-1.6,2.8-5,5.3-9.8,5.3c-7,0-12.4-5.5-12.4-13.7
		C295.2,99.5,300.7,94.3,307.7,94.3z M308.6,98.1c-4.8,0-8.9,3.5-8.9,9.7s4.1,9.8,8.9,9.8c4.8,0,8.9-3.6,8.9-9.8
		C317.5,101.7,313.4,98.1,308.6,98.1z"/>
	<path class="st2" d="M340.5,94.3c6.5,0,10.8,3.4,12.1,8.9h-4.7c-0.9-3.2-3.6-5.2-7.4-5.2c-4.8,0-8.4,3.4-8.4,9.8
		c0,6.5,3.6,9.9,8.4,9.9c3.9,0,6.5-1.9,7.4-5.2h4.7c-1.3,5.2-5.6,8.9-12.1,8.9c-7.5,0-12.8-5.3-12.8-13.6
		C327.7,99.5,333,94.3,340.5,94.3z"/>
	<path class="st2" d="M381.8,121h-4.4v-3.9c-1.7,2.7-4.9,4.3-8.4,4.3c-6,0-10.8-3.7-10.8-11.3V94.7h4.3v14.8c0,5.3,2.9,8.1,7.3,8.1
		c4.5,0,7.5-2.8,7.5-8.4V94.7h4.4V121z"/>
	<path class="st2" d="M390.1,98.3h-3.4v-3.6h3.4v-6.6h4.4v6.6h6.9v3.6h-6.9v15.5c0,2.6,1,3.5,3.6,3.5h3.2v3.7h-3.9
		c-4.7,0-7.3-1.9-7.3-7.2V98.3z"/>
	<path class="st2" d="M418.1,121.4c-7.4,0-13.1-5.3-13.1-13.6c0-8.3,5.9-13.5,13.3-13.5c7.5,0,13.3,5.2,13.3,13.5
		C431.6,116.2,425.6,121.4,418.1,121.4z M418.1,117.6c4.6,0,9-3.1,9-9.8c0-6.6-4.4-9.7-8.9-9.7c-4.6,0-8.8,3.1-8.8,9.7
		C409.5,114.5,413.6,117.6,418.1,117.6z"/>
	<path class="st2" d="M456.6,106.1c0-5.4-2.9-8.1-7.3-8.1c-4.5,0-7.5,2.8-7.5,8.4V121h-4.4V94.7h4.4v3.7c1.7-2.7,4.9-4.2,8.4-4.2
		c6.1,0,10.8,3.7,10.8,11.3V121h-4.3V106.1z"/>
</g>
</svg>
